<svg id="Instagram_Icon" data-name="Instagram Icon" xmlns="http://www.w3.org/2000/svg" width="81" height="84" viewBox="0 0 81 84">
  <rect id="Rectangle_100" data-name="Rectangle 100" width="81" height="84" rx="8" fill="#bfbf69" opacity="0"/>
  <g id="Group_229" data-name="Group 229" transform="translate(-1272 -5930)">
    <path id="Path_47" data-name="Path 47" d="M1640.973,2672.236H1619.5a16.177,16.177,0,0,1-16.158-16.158V2634.6a16.176,16.176,0,0,1,16.158-16.158h21.477a16.177,16.177,0,0,1,16.159,16.158v21.479A16.178,16.178,0,0,1,1640.973,2672.236ZM1619.5,2623.5a11.109,11.109,0,0,0-11.1,11.1v21.479a11.109,11.109,0,0,0,11.1,11.1h21.477a11.11,11.11,0,0,0,11.1-11.1V2634.6a11.11,11.11,0,0,0-11.1-11.1Z" transform="translate(-317.603 3327.066)" fill="#414037"/>
    <path id="Path_46" data-name="Path 46" d="M1709.141,2709.525a13.248,13.248,0,1,0,13.248,13.248A13.263,13.263,0,0,0,1709.141,2709.525Zm0,21.734a8.486,8.486,0,1,1,8.486-8.486A8.5,8.5,0,0,1,1709.141,2731.259Z" transform="translate(-396.288 3249.632)" fill="#414037"/>
    <path id="Path_45" data-name="Path 45" d="M1859.969,2682.535a3.154,3.154,0,1,0,3.154,3.154A3.154,3.154,0,0,0,1859.969,2682.535Z" transform="translate(-533.094 3272.577)" fill="#414037"/>
  </g>
</svg>
