<svg id="WhatsApp_Icon" data-name="WhatsApp Icon" xmlns="http://www.w3.org/2000/svg" width="81" height="84" viewBox="0 0 81 84">
  <rect id="Rectangle_98" data-name="Rectangle 98" width="81" height="84" rx="8" fill="#bfbf69" opacity="0"/>
  <g id="Group_124" data-name="Group 124" transform="translate(-0.804 1.314)">
    <path id="Path_42" data-name="Path 42" d="M1382.4,2767.736l4.144-15.441a28.62,28.62,0,1,1,11.4,11.283Zm16.313-9.944.979.583a23.191,23.191,0,1,0-7.947-7.865l.6.984-2.313,8.621Z" transform="translate(-1369.592 -2698.325)" fill="#414037"/>
    <path id="Path_43" data-name="Path 43" d="M1499.54,2821.432c-1.1-.658-2.53-1.392-3.825-.862-.993.406-1.628,1.961-2.271,2.755a.953.953,0,0,1-1.232.267,17.323,17.323,0,0,1-8.645-7.405,1.06,1.06,0,0,1,.134-1.448,5.849,5.849,0,0,0,1.571-2.55,5.574,5.574,0,0,0-.7-3.018c-.521-1.123-1.1-2.723-2.228-3.358a3.053,3.053,0,0,0-3.316.493,6.73,6.73,0,0,0-2.333,5.333,7.524,7.524,0,0,0,.21,1.692,14,14,0,0,0,1.623,3.741,29.575,29.575,0,0,0,1.695,2.578,26.165,26.165,0,0,0,7.35,6.824,22.274,22.274,0,0,0,4.584,2.18c1.8.593,3.4,1.211,5.336.843a6.459,6.459,0,0,0,4.838-3.6,3.128,3.128,0,0,0,.225-1.837C1502.276,2822.8,1500.563,2822.043,1499.54,2821.432Z" transform="translate(-1448.017 -2777.012)" fill="#414037" fill-rule="evenodd"/>
  </g>
</svg>
